<svg id="Ebene_1" data-name="Ebene 1" xmlns="http://www.w3.org/2000/svg" viewBox="0 0 1259.68 400"><defs><style>.cls-1,.cls-2{fill:#fff;}.cls-1{fill-rule:evenodd;}</style></defs><path class="cls-1" d="M474.85,372h74.78q55.88-.52,96.44-23.19t62.6-61.2q22-38.53,22.3-86.67v-1.14q-.27-47.9-22.3-86.71t-62.6-61.88q-40.58-23-96.44-23.61H416.83V.34h132.8Q612.8.9,660.37,26.8t74.22,70.54q26.65,44.63,27.1,101.35v1.14q-.45,56.74-27.1,101.65t-74.22,71.09q-47.58,26.18-110.74,26.75H416.83V372.2h58Z"/><path class="cls-1" d="M0,27.63V.34H286.7V27.63H0ZM0,399.32V184.48H286.7v27.29H29.57V372H286.7v27.29Z"/><rect class="cls-2" x="1230.1" width="29.58" height="398.98"/><circle class="cls-2" cx="351.77" cy="385.58" r="14.42"/><path class="cls-1" d="M881.45,372h74.79q55.86-.52,96.44-23.19t62.6-61.2q22-38.53,22.3-86.67v-1.14q-.27-47.9-22.3-86.71t-62.6-61.88q-40.57-23-96.44-23.61H823.44V.34h132.8Q1019.41.9,1067,26.8t74.23,70.54q26.65,44.63,27.1,101.35v1.14q-.45,56.74-27.1,101.65T1067,372.57q-47.57,26.18-110.73,26.75H823.44V372.2h58Z"/><circle class="cls-2" cx="758.38" cy="385.58" r="14.42"/><circle class="cls-2" cx="1164.98" cy="385.24" r="14.42"/></svg>